<svg width="20" height="20" viewBox="0 0 20 20" fill="none" xmlns="http://www.w3.org/2000/svg">
<path d="M15.8337 1.66699H4.16699C3.50395 1.66699 2.86807 1.93038 2.39923 2.39923C1.93038 2.86807 1.66699 3.50395 1.66699 4.16699V15.8337C1.66699 16.4967 1.93038 17.1326 2.39923 17.6014C2.86807 18.0703 3.50395 18.3337 4.16699 18.3337H15.8337C15.9707 18.3317 16.1074 18.3178 16.242 18.292L16.492 18.2337H16.5503H16.592L16.9003 18.117L17.0087 18.0587C17.092 18.0087 17.1837 17.967 17.267 17.9087C17.3783 17.8268 17.484 17.7377 17.5837 17.642L17.642 17.567C17.7238 17.4841 17.799 17.3949 17.867 17.3003L17.942 17.192C18.0002 17.0992 18.0504 17.0016 18.092 16.9003C18.1149 16.8603 18.1344 16.8185 18.1503 16.7753C18.192 16.6753 18.217 16.567 18.2503 16.4587V16.3337C18.2976 16.1708 18.3255 16.003 18.3337 15.8337V4.16699C18.3337 3.50395 18.0703 2.86807 17.6014 2.39923C17.1326 1.93038 16.4967 1.66699 15.8337 1.66699ZM4.16699 16.667C3.94598 16.667 3.73402 16.5792 3.57774 16.4229C3.42146 16.2666 3.33366 16.0547 3.33366 15.8337V12.242L6.07533 9.49199C6.15279 9.41389 6.24496 9.35189 6.34651 9.30958C6.44806 9.26728 6.55698 9.24549 6.66699 9.24549C6.777 9.24549 6.88592 9.26728 6.98747 9.30958C7.08902 9.35189 7.18119 9.41389 7.25866 9.49199L14.4253 16.667H4.16699ZM16.667 15.8337C16.6662 15.9364 16.6464 16.0381 16.6087 16.1337C16.5896 16.1743 16.5673 16.2133 16.542 16.2503C16.5197 16.2856 16.4946 16.319 16.467 16.3503L12.0087 11.892L12.742 11.1587C12.8195 11.0806 12.9116 11.0186 13.0132 10.9762C13.1147 10.9339 13.2236 10.9122 13.3337 10.9122C13.4437 10.9122 13.5526 10.9339 13.6541 10.9762C13.7557 11.0186 13.8479 11.0806 13.9253 11.1587L16.667 13.9087V15.8337ZM16.667 11.5503L15.1003 10.0003C14.6234 9.54782 13.9911 9.29556 13.3337 9.29556C12.6762 9.29556 12.0439 9.54782 11.567 10.0003L10.8337 10.7337L8.43366 8.33366C7.95676 7.88115 7.32441 7.62889 6.66699 7.62889C6.00958 7.62889 5.37722 7.88115 4.90033 8.33366L3.33366 9.88366V4.16699C3.33366 3.94598 3.42146 3.73402 3.57774 3.57774C3.73402 3.42146 3.94598 3.33366 4.16699 3.33366H15.8337C16.0547 3.33366 16.2666 3.42146 16.4229 3.57774C16.5792 3.73402 16.667 3.94598 16.667 4.16699V11.5503Z" fill="#A4A4A6"/>
</svg>
