<svg width="33" height="33" viewBox="0 0 33 33" fill="none" xmlns="http://www.w3.org/2000/svg">
<g clip-path="url(#clip0_1377_10939)">
<path d="M22.2748 9.90103L6.6504 10.8389C6.03442 10.877 5.44518 11.1041 4.96302 11.4894C4.48086 11.8746 4.12924 12.3992 3.9561 12.9915C3.78297 13.5839 3.79674 14.2153 3.99555 14.7995C4.19435 15.3838 4.56852 15.8925 5.06702 16.2564L9.83048 19.7069C9.94256 19.7921 10.0365 19.8988 10.1069 20.0207C10.1773 20.1427 10.2227 20.2774 10.2405 20.4171L10.847 26.2676C10.8993 26.7648 11.075 27.241 11.3582 27.653C11.6413 28.065 12.023 28.3997 12.4684 28.6267C12.9138 28.8537 13.4089 28.9658 13.9086 28.9528C14.4084 28.9398 14.8969 28.8021 15.3299 28.5522C15.7331 28.3141 16.0779 27.9888 16.3391 27.6001L24.9634 14.5379C25.2686 14.0733 25.4386 13.533 25.4546 12.9773C25.4706 12.4217 25.3319 11.8725 25.0539 11.3911C24.776 10.9097 24.3697 10.5149 23.8805 10.2509C23.3913 9.98696 22.8384 9.86408 22.2834 9.89603L22.2748 9.90103ZM23.289 13.4377L14.6646 26.4999C14.5496 26.6683 14.3858 26.7974 14.1952 26.8701C14.0047 26.9427 13.7964 26.9553 13.5985 26.9063C13.4006 26.8572 13.2223 26.7488 13.0878 26.5956C12.9532 26.4424 12.8686 26.2517 12.8455 26.0491L12.2303 20.2035C12.2212 20.126 12.2077 20.049 12.1896 19.973L18.1565 16.528C18.3862 16.3954 18.5538 16.177 18.6224 15.9208C18.6911 15.6646 18.6551 15.3917 18.5225 15.162C18.3899 14.9323 18.1715 14.7647 17.9153 14.6961C17.6591 14.6274 17.3862 14.6634 17.1565 14.796L11.1896 18.241C11.1328 18.1873 11.073 18.1371 11.0103 18.0904L6.25551 14.6349C6.0916 14.5135 5.96872 14.345 5.90333 14.1518C5.83793 13.9587 5.83316 13.7501 5.88965 13.5542C5.94614 13.3582 6.06119 13.1842 6.21937 13.0555C6.37755 12.9268 6.5713 12.8495 6.77464 12.834L22.399 11.8962C22.5828 11.887 22.7656 11.9287 22.9273 12.0167C23.0889 12.1047 23.2231 12.2356 23.3152 12.395C23.4072 12.5544 23.4534 12.736 23.4488 12.92C23.4442 13.104 23.3889 13.2832 23.289 13.4377Z" fill="white"/>
</g>
<defs>
<clipPath id="clip0_1377_10939">
<rect width="24" height="24" fill="white" transform="translate(0 12) rotate(-30)"/>
</clipPath>
</defs>
</svg>
