<svg width="22" height="15" viewBox="0 0 22 15" fill="none" xmlns="http://www.w3.org/2000/svg">
<path d="M2.54403 14H0.447443L5.15838 0.909091H7.44034L12.1513 14H10.0547L6.35369 3.28693H6.25142L2.54403 14ZM2.8956 8.87358H9.69673V10.5355H2.8956V8.87358ZM16.3856 14.2173C15.7634 14.2173 15.2009 14.1023 14.6981 13.8722C14.1952 13.6378 13.7968 13.299 13.5027 12.8558C13.213 12.4126 13.0681 11.8693 13.0681 11.2259C13.0681 10.6719 13.1746 10.2159 13.3877 9.85795C13.6008 9.5 13.8884 9.21662 14.2506 9.00781C14.6128 8.79901 15.0177 8.64134 15.4651 8.5348C15.9126 8.42827 16.3685 8.3473 16.833 8.2919C17.4211 8.22372 17.8983 8.16832 18.2648 8.12571C18.6313 8.07884 18.8976 8.00426 19.0638 7.90199C19.23 7.79972 19.3131 7.63352 19.3131 7.40341V7.35866C19.3131 6.80043 19.1554 6.3679 18.8401 6.06108C18.529 5.75426 18.0645 5.60085 17.4466 5.60085C16.8032 5.60085 16.2961 5.74361 15.9253 6.02912C15.5589 6.31037 15.3053 6.62358 15.1647 6.96875L13.3685 6.55966C13.5816 5.96307 13.8927 5.48153 14.3018 5.11506C14.7151 4.74432 15.1902 4.47585 15.7272 4.30966C16.2641 4.1392 16.8287 4.05398 17.4211 4.05398C17.8131 4.05398 18.2286 4.10085 18.6675 4.1946C19.1107 4.28409 19.5241 4.45028 19.9076 4.69318C20.2954 4.93608 20.6128 5.28338 20.86 5.73509C21.1072 6.18253 21.2307 6.7642 21.2307 7.48011V14H19.3643V12.6577H19.2876C19.164 12.9048 18.9786 13.1477 18.7314 13.3864C18.4843 13.625 18.1668 13.8232 17.779 13.9808C17.3912 14.1385 16.9268 14.2173 16.3856 14.2173ZM16.801 12.6832C17.3295 12.6832 17.7812 12.5788 18.1562 12.37C18.5354 12.1612 18.8231 11.8885 19.0191 11.5518C19.2194 11.2109 19.3195 10.8466 19.3195 10.4588V9.19318C19.2513 9.26136 19.1192 9.32528 18.9232 9.38494C18.7314 9.44034 18.512 9.48935 18.2648 9.53196C18.0177 9.57031 17.7769 9.60653 17.5425 9.64062C17.3081 9.67045 17.1121 9.69602 16.9545 9.71733C16.5837 9.7642 16.2449 9.84304 15.9381 9.95384C15.6356 10.0646 15.3927 10.2244 15.2094 10.4332C15.0304 10.6378 14.941 10.9105 14.941 11.2514C14.941 11.7244 15.1157 12.0824 15.4651 12.3253C15.8145 12.5639 16.2599 12.6832 16.801 12.6832Z" fill="#333233"/>
</svg>
