<svg width="44" height="20" viewBox="0 0 44 20" fill="none" xmlns="http://www.w3.org/2000/svg">
<path d="M2.60206 14.1449V11.9525H11.3065L10.9551 12.5387V12.2338C10.9577 11.7059 10.8332 11.1851 10.592 10.7157C10.3424 10.235 9.96017 9.83617 9.49066 9.56663C8.9986 9.27353 8.37378 9.12698 7.61621 9.12698C6.93549 9.10983 6.26242 9.27371 5.66567 9.60189C5.11364 9.9198 4.66899 10.3953 4.38865 10.9677C4.08787 11.5617 3.93754 12.273 3.93765 13.1014C3.93765 13.9535 4.08211 14.6862 4.37103 15.2997C4.63831 15.8895 5.08264 16.3812 5.64221 16.7065C6.20052 17.031 6.88197 17.1932 7.68657 17.1931C8.16354 17.2009 8.63966 17.1497 9.10408 17.0406C9.45216 16.9608 9.78335 16.8199 10.0823 16.6244C10.3096 16.4752 10.5048 16.2818 10.6564 16.0559C10.7778 15.8727 10.856 15.6642 10.8848 15.4462H13.9543C13.9007 15.9896 13.7223 16.5132 13.4329 16.9761C13.1042 17.5028 12.6765 17.9607 12.1735 18.3244C11.579 18.7545 10.9153 19.0796 10.2112 19.2858C9.35732 19.536 8.47073 19.6565 7.58108 19.6433C6.24548 19.6433 5.07784 19.3698 4.07814 18.8227C3.09935 18.2963 2.28916 17.5038 1.74101 16.5365C1.18248 15.5595 0.903244 14.4419 0.90332 13.1835C0.90332 11.8939 1.18644 10.7645 1.75268 9.79527C2.31191 8.83289 3.12983 8.04691 4.11338 7.52675C5.12086 6.9836 6.27676 6.71199 7.58108 6.71191C8.92435 6.71191 10.0861 6.98547 11.0664 7.53259C12.0255 8.05866 12.8126 8.85041 13.3333 9.8129C13.8644 10.786 14.1299 11.9173 14.13 13.207C14.13 13.3711 14.1261 13.5469 14.1182 13.7346C14.1149 13.8719 14.1032 14.009 14.0831 14.1449H2.60206Z" fill="#1B1B1B"/>
<path d="M15.9688 19.3741V8.09567L19.0499 6.92328V19.3741H15.9688ZM24.7669 19.3741V12.3749C24.7744 11.8588 24.6932 11.3452 24.5268 10.8566C24.378 10.422 24.0897 10.049 23.7067 9.79563C23.3201 9.53769 22.7871 9.40873 22.1075 9.40877C21.5505 9.39879 21.0021 9.5472 20.526 9.83674C20.0652 10.122 19.6906 10.5272 19.4423 11.0091C19.1724 11.5406 19.0376 12.1305 19.0499 12.7266L18.0072 12.0818C17.9894 11.1105 18.2344 10.1526 18.716 9.30916C19.1757 8.51064 19.8396 7.84911 20.6396 7.39267C21.4396 6.93623 22.3466 6.70138 23.2674 6.71228C24.2671 6.71228 25.1086 6.90767 25.792 7.29847C26.467 7.68025 27.0072 8.26183 27.3385 8.96328C27.6859 9.6824 27.8597 10.5265 27.8598 11.4956V19.3741H24.7669Z" fill="#1B1B1B"/>
<path d="M31.9439 4.60049C31.4762 4.61055 31.0179 4.46862 30.6377 4.19599C30.4578 4.06898 30.3127 3.89887 30.2154 3.70123C30.1182 3.50358 30.0721 3.28469 30.0812 3.06459C30.0727 2.84706 30.1192 2.63089 30.2165 2.43617C30.3138 2.24145 30.4587 2.0745 30.6377 1.95082C31.0194 1.68177 31.4771 1.5421 31.9439 1.55228C32.4051 1.54272 32.8571 1.68251 33.2326 1.95082C33.4102 2.0755 33.5537 2.2428 33.6499 2.4374C33.7461 2.632 33.7919 2.84765 33.7832 3.06459C33.7925 3.2841 33.7471 3.50248 33.6509 3.7C33.5548 3.89753 33.411 4.06799 33.2326 4.19599C32.8586 4.46787 32.406 4.60991 31.9439 4.60049ZM30.4092 19.3491V7.71899L33.4552 6.89832V19.3491H30.4092Z" fill="#1B1B1B"/>
<path d="M37.3109 19.3506V9.36185H35.8464L35.0264 6.89983H37.3109V5.78606C37.2989 5.13511 37.3979 4.48688 37.6037 3.86925C37.9363 2.87299 38.6332 2.03951 39.5544 1.53615C39.9918 1.29641 40.4613 1.12071 40.9486 1.01442C41.4351 0.906085 41.932 0.851073 42.4305 0.850351C42.7897 0.841187 43.1489 0.868692 43.5025 0.932441C43.6722 0.964865 43.8388 1.01191 44.0004 1.07304V3.55852C43.8407 3.51181 43.6783 3.47461 43.5142 3.44712C43.2687 3.4029 43.0197 3.38133 42.7703 3.38266C42.366 3.36962 41.9633 3.43944 41.587 3.58783C41.2971 3.70677 41.0458 3.90358 40.8607 4.15651C40.6845 4.40861 40.561 4.6937 40.4975 4.9947C40.4247 5.3357 40.3894 5.68365 40.3921 6.03233V6.89983H43.0163L43.8363 9.36185H40.3921V19.3506H37.3109Z" fill="#1B1B1B"/>
</svg>
